# xmcd
#
# Track frame offsets: 
#        150
#        13806
#        25976
#        40552
#        53633
#        66331
#        79610
#        90019
#        102745
#        115055
#        127335
#        138847
#        149621
#        161873
#        173348
#        185747
#        199039
#        210589
#        221786
#        235093
#        248456
#        262561
#        273081
#        283225
#        337372
#
# Disc length: 4716 seconds
#
# Revision: 0
# Processed by: cddbd v1.5.2PL0 Copyright (c) Steve Scherf et al.
# Submitted via: ExactAudioCopy v1.0b1
#
DISCID=6b126a19
DTITLE=Earl Van Dyke - The Motown Sound - Complete Albums and More
DYEAR=2012
DGENRE=R&B
TTITLE0=Nowhere To Run
TTITLE1=Come See About Me
TTITLE2=You're A Wonderful One
TTITLE3=How Sweet It Is (To Be Loved By You)
TTITLE4=My Girl
TTITLE5=All For You
TTITLE6=Too Many Fish In The Sea
TTITLE7=Try It Baby
TTITLE8=The Way You Do The Things You Do
TTITLE9=Can I Get A Witness
TTITLE10=Can You Jerk Like Me
TTITLE11=Money (That's What I Want)
TTITLE12=I Can't Help Myself (Sugar Pie, Honey Bunch)
TTITLE13=Soul Stomp
TTITLE14=Hot 'N' Tot
TTITLE15=Mobile Lil The Dancing Witch
TTITLE16=He Was Really Sayin' somethin'
TTITLE17=All Day, All Night
TTITLE18=Opus And Funk
TTITLE19=Too Many Fish In The Sea (live)
TTITLE20=Soul Stomp (live)
TTITLE21=6 By 6
TTITLE22=There Is No Greater Love
TTITLE23=The Flick - Parts 1, 2, 3 and 4
TTITLE24=You Name It (live)
EXTD=
EXTT0=
EXTT1=
EXTT2=
EXTT3=
EXTT4=
EXTT5=
EXTT6=
EXTT7=
EXTT8=
EXTT9=
EXTT10=
EXTT11=
EXTT12=
EXTT13=
EXTT14=
EXTT15=
EXTT16=
EXTT17=
EXTT18=
EXTT19=
EXTT20=
EXTT21=
EXTT22=
EXTT23=
EXTT24=
PLAYORDER=
